<svg width="349" height="287" viewBox="0 0 349 287" fill="none" xmlns="http://www.w3.org/2000/svg">
<path d="M212.558 286.047C208.827 284.786 204.985 281.91 204.024 279.658C201.332 273.353 205.492 262.121 211.22 260.223C214.044 259.285 217.162 257.446 218.149 256.133C219.135 254.82 222.022 253.471 224.566 253.136C227.109 252.8 231.275 250.971 233.823 249.07C237.929 246.008 243.784 244.213 251.761 243.573C253.168 243.461 253.546 241.556 252.601 239.342C250.989 235.567 254.284 233.978 261.146 235.222C262.789 235.519 263.145 234.877 261.94 233.793C260.733 232.708 262.077 230.102 264.925 228.001C269.706 224.477 269.586 224.282 263.386 225.473C259.69 226.182 256.668 225.596 256.668 224.171C256.668 222.746 255.301 222.339 253.633 223.266C251.965 224.193 251.347 226.041 252.261 227.371C254.439 230.537 240.161 233.731 235.474 231.128C233.173 229.85 232.632 230.246 233.987 232.217C235.231 234.025 234.179 235.456 231.463 235.651C226.05 236.041 223.964 236.519 217.849 238.77C208.073 242.368 188.427 245.831 167.835 247.585C146.163 249.43 144.183 248.728 145.906 239.812C146.142 238.596 145.015 238.333 143.404 239.229C141.793 240.123 141.257 242.69 142.215 244.931C143.568 248.103 142.379 248.654 136.858 247.412C128.877 245.618 114.837 243.851 105.875 243.511C100.894 243.322 100.647 242.848 104.381 240.646C107.558 238.775 106.001 238.501 99.0309 239.703C91.4312 241.015 88.2329 240.252 84.9408 236.346C82.5523 233.509 80.6409 232.744 80.5885 234.602C80.4813 238.382 59.592 230.589 59.592 226.767C59.592 225.565 57.4957 224.58 54.9364 224.58C52.3755 224.58 51.1015 223.386 52.1057 221.928C53.1499 220.41 51.9588 219.956 49.3213 220.864C46.6055 221.801 43.9568 220.686 42.8743 218.15C41.8637 215.782 39.0074 213.845 36.528 213.845C33.4498 213.845 32.5301 212.096 33.627 208.325C34.8468 204.132 34.3359 203.473 31.5051 205.585C27.1018 208.87 19.5899 200.624 9.16975 181.067C2.40284 168.366 -2.96947 133.342 1.84531 133.319C3.22316 133.313 4.57913 129.235 4.85853 124.259C5.7558 108.294 35.5988 61.6578 42.6077 65.2682C44.5587 66.2744 45.159 66.108 43.9408 64.8997C40.8243 61.8087 47.6018 55.1891 51.7177 57.3028C53.5857 58.2614 54.0775 58.022 52.8114 56.7704C51.5469 55.5206 55.5144 49.8925 61.6293 44.263C71.8968 34.8136 78.5596 31.1931 76.7619 36.0434C76.35 37.1497 77.0237 38.358 78.2544 38.7268C83.274 40.2307 84.0193 39.1903 80.5853 35.4722C77.5659 32.2019 80.0949 29.7265 95.7509 20.6315C106.086 14.6275 116.355 10.3412 118.574 11.1074C120.792 11.8723 121.937 11.5236 121.119 10.3325C119.178 7.50991 139.261 0.97781 143.182 3.15613C144.835 4.07453 146.185 3.71004 146.185 2.34823C146.185 0.98642 151.897 -0.0682954 158.876 0.0034545C165.855 0.0766392 169.198 0.607581 166.304 1.18301C163.411 1.75988 161.806 3.34269 162.742 4.70163C163.704 6.10074 168.251 5.40047 173.23 3.08726C178.062 0.841491 181.963 -0.060551 181.896 1.084C181.749 3.57802 154.757 15.2431 149.136 15.2431C146.966 15.2431 146.043 16.0094 147.086 16.9464C148.129 17.8835 142.641 22.3836 134.893 26.9469C127.145 31.5088 119.029 36.781 116.859 38.6622C114.688 40.5421 111.616 42.0818 110.031 42.0818C105.053 42.0818 62.9768 82.4652 50.6017 99.1215C35.8143 119.027 31.5946 132.746 33.9016 153.43C36.4465 176.235 36.4338 176.184 39.1878 174.654C40.5561 173.893 41.6753 175.03 41.6753 177.178C41.6753 181.605 57.633 194.898 73.9928 204.097C85.2505 210.427 93.1631 213.029 108.861 215.566C113.788 216.362 118.154 217.81 118.565 218.784C118.975 219.759 128.149 220.218 138.952 219.805C154.267 219.221 158.085 219.81 156.293 222.488C154.551 225.094 155.037 225.228 158.303 223.042C160.671 221.458 172.015 218.549 183.51 216.579C195.007 214.609 215.162 209.491 228.3 205.207C241.438 200.922 254.54 196.744 257.414 195.923C260.288 195.104 262.639 193.313 262.639 191.944C262.639 190.575 264.319 189.652 266.372 189.892C273.657 190.742 277.899 189.66 276.315 187.354C275.431 186.07 270.312 184.978 264.941 184.932C240.693 184.722 238.384 184.346 240.642 180.97C242.409 178.325 241.94 178.301 238.422 180.856C233.757 184.247 220.836 182.682 220.836 178.726C220.836 177.469 218.831 177.132 216.382 177.977C213.912 178.829 211.166 177.728 210.217 175.505C209.196 173.114 206.196 172.041 202.781 172.843C198.603 173.826 196.231 172.246 194.015 167.004C190.341 158.323 190.139 154.828 193.593 159.726C195.513 162.448 196.509 161.965 197.748 157.708C198.781 154.156 198.218 152.754 196.207 153.871C194.263 154.95 193.925 154.342 195.332 152.296C196.823 150.126 201.939 149.424 209.976 150.288C216.77 151.018 241.14 153.608 264.132 156.043C325.867 162.581 336.182 164.767 343.203 172.788C351.633 182.422 350.665 197.743 341.625 197.743C339.434 197.743 336.821 198.937 335.818 200.396C334.752 201.946 336.228 202.412 339.374 201.519C344.454 200.073 344.465 200.203 339.573 203.827C336.725 205.938 335.27 208.453 336.338 209.414C337.408 210.376 336.085 211.162 333.401 211.162C330.715 211.162 329.128 212.671 329.874 214.516C332.125 220.081 311.77 239.042 305.769 236.972C301.616 235.54 301.286 235.922 304.072 238.941C306.813 241.911 305.972 243.608 300.015 247.115C295.882 249.551 292.498 250.68 292.498 249.626C292.498 248.572 290.525 250.053 288.114 252.919C285.703 255.784 283.686 256.991 283.636 255.602C283.585 254.213 281.566 255.421 279.155 258.287C276.745 261.151 274.73 262.645 274.677 261.605C274.626 260.566 271.164 262.787 266.983 266.544C262.596 270.486 257.484 272.716 254.884 271.819C252.41 270.965 251.059 271.249 251.885 272.451C253.738 275.146 227.393 286.951 223.881 284.999C222.485 284.224 220.894 284.66 220.343 285.965C219.774 287.313 216.409 287.349 212.558 286.047ZM175.05 239.459C175.05 237.31 173.908 236.187 172.513 236.961C171.117 237.736 170.748 239.496 171.694 240.869C174.108 244.38 175.05 243.985 175.05 239.459ZM195.281 240.933C196.203 239.596 194.266 239.133 190.98 239.905C184.008 241.544 183.125 243.367 189.307 243.367C191.673 243.367 194.362 242.272 195.281 240.933ZM71.536 221.897C71.536 220.422 70.1118 219.213 68.3729 219.213C66.6345 219.213 66.0419 220.422 67.056 221.897C68.0714 223.374 69.4943 224.58 70.2191 224.58C70.9421 224.58 71.536 223.374 71.536 221.897ZM273.223 222.09C271.641 219.789 282.542 214.897 286.99 215.913C288.066 216.159 289.707 214.579 290.635 212.404C291.936 209.358 289.577 209.71 280.363 213.934C273.783 216.951 269.199 220.581 270.175 222C271.152 223.42 272.621 224.58 273.443 224.58C274.264 224.58 274.166 223.459 273.223 222.09ZM17.7874 124.058C17.7874 121.987 8.90005 120.322 7.63876 122.156C6.87879 123.261 8.85139 124.341 12.0224 124.555C15.193 124.771 17.7874 124.548 17.7874 124.058Z" fill="#F7A072"/>
</svg>
