<svg width="379" height="126" viewBox="0 0 379 126" fill="none" xmlns="http://www.w3.org/2000/svg">
<path d="M345.918 92.5967C346.45 93.4629 345.55 94.5027 344.658 94.052L318.241 80.7032C317.633 80.3961 317.497 79.5629 317.974 79.0704L329.116 67.5679C329.561 67.1089 330.304 67.1953 330.642 67.7454L345.918 92.5967Z" fill="#15616D"/>
<rect x="258" y="36" width="83" height="55" rx="16" fill="#15616D"/>
<path d="M275.88 66.184C277.117 66.184 278.44 66.184 279.848 66.184C281.256 66.184 282.685 66.184 284.136 66.184C285.629 66.184 287.08 66.184 288.488 66.184C289 66.184 289.448 66.2053 289.832 66.248C290.259 66.248 290.579 66.2267 290.792 66.184C291.048 66.0987 291.219 65.9707 291.304 65.8C291.432 65.6293 291.453 65.3307 291.368 64.904C291.069 63.5387 290.536 62.3653 289.768 61.384C289.043 60.36 288.104 59.592 286.952 59.08C285.8 58.5253 284.499 58.248 283.048 58.248C281.128 58.248 279.421 58.696 277.928 59.592C276.477 60.488 275.325 61.768 274.472 63.432C273.661 65.0533 273.256 66.952 273.256 69.128C273.256 71.432 273.704 73.3947 274.6 75.016C275.496 76.6373 276.712 77.8747 278.248 78.728C279.827 79.5387 281.619 79.944 283.624 79.944C284.52 79.944 285.459 79.8587 286.44 79.688C287.421 79.4747 288.403 79.176 289.384 78.792C290.408 78.408 291.432 77.9387 292.456 77.384C293.395 76.8293 294.227 76.68 294.952 76.936C295.72 77.192 296.296 77.6613 296.68 78.344C297.064 78.984 297.149 79.688 296.936 80.456C296.765 81.224 296.211 81.864 295.272 82.376C293.949 83.144 292.627 83.784 291.304 84.296C289.981 84.7653 288.659 85.1067 287.336 85.32C286.056 85.576 284.819 85.704 283.624 85.704C280.637 85.704 277.928 85.0427 275.496 83.72C273.064 82.3973 271.123 80.4987 269.672 78.024C268.221 75.5493 267.496 72.584 267.496 69.128C267.496 65.8 268.179 62.8987 269.544 60.424C270.909 57.9067 272.765 55.9653 275.112 54.6C277.459 53.192 280.104 52.488 283.048 52.488C285.395 52.488 287.549 52.9573 289.512 53.896C291.475 54.8347 293.096 56.1573 294.376 57.864C295.699 59.528 296.573 61.5333 297 63.88C297.256 65.2027 297.299 66.376 297.128 67.4C296.957 68.424 296.531 69.2773 295.848 69.96C295.165 70.6 294.205 71.0907 292.968 71.432C291.773 71.7733 290.28 71.944 288.488 71.944C287.123 71.944 285.864 71.944 284.712 71.944C283.56 71.944 282.472 71.944 281.448 71.944C280.467 71.944 279.507 71.944 278.568 71.944C277.672 71.944 276.776 71.944 275.88 71.944C274.813 71.944 274.003 71.6667 273.448 71.112C272.893 70.5147 272.616 69.832 272.616 69.064C272.616 68.296 272.893 67.6347 273.448 67.08C274.003 66.4827 274.813 66.184 275.88 66.184ZM330.719 40.456C330.719 41.352 330.719 42.1413 330.719 42.824C330.719 43.5067 330.719 44.2107 330.719 44.936C330.719 45.6613 330.719 46.5573 330.719 47.624C330.719 50.056 330.719 52.1467 330.719 53.896C330.719 55.6027 330.719 57.224 330.719 58.76C330.719 60.2533 330.719 61.8747 330.719 63.624C330.719 65.3307 330.719 67.4 330.719 69.832C330.719 72.264 330.335 74.4613 329.567 76.424C328.799 78.344 327.71 80.008 326.302 81.416C324.937 82.7813 323.316 83.848 321.438 84.616C319.604 85.3413 317.598 85.704 315.422 85.704C313.246 85.704 311.22 85.2987 309.342 84.488C307.465 83.6773 305.822 82.5253 304.414 81.032C303.006 79.5387 301.918 77.7893 301.15 75.784C300.382 73.736 299.998 71.496 299.998 69.064C299.998 65.8213 300.66 62.9627 301.982 60.488C303.348 57.9707 305.182 56.008 307.486 54.6C309.833 53.192 312.457 52.488 315.358 52.488C317.534 52.488 319.54 52.8933 321.375 53.704C323.252 54.472 324.873 55.6027 326.239 57.096C327.647 58.5467 328.734 60.2747 329.502 62.28C330.313 64.2853 330.719 66.504 330.719 68.936C330.719 70.3867 330.719 71.7733 330.719 73.096C330.719 74.4187 330.719 75.6347 330.719 76.744C330.719 77.896 330.719 78.9627 330.719 79.944C330.719 80.9253 330.719 81.992 330.719 83.144C330.719 84.2107 330.42 85.0213 329.822 85.576C329.268 86.1307 328.606 86.408 327.839 86.408C327.071 86.408 326.388 86.1307 325.791 85.576C325.236 85.064 324.958 84.2533 324.958 83.144C324.958 81.9067 324.958 80.776 324.958 79.752C324.958 78.6853 324.958 77.6827 324.958 76.744C324.958 76.2747 324.958 75.5493 324.958 74.568C324.958 73.544 324.958 72.52 324.958 71.496C324.958 70.4293 324.958 69.576 324.958 68.936C324.958 66.8453 324.553 64.9893 323.743 63.368C322.932 61.7467 321.801 60.488 320.351 59.592C318.9 58.696 317.236 58.248 315.358 58.248C313.95 58.248 312.649 58.5253 311.454 59.08C310.26 59.592 309.236 60.3387 308.382 61.32C307.572 62.2587 306.932 63.3893 306.462 64.712C305.993 66.0347 305.758 67.4853 305.758 69.064C305.758 71.1547 306.164 73.032 306.974 74.696C307.785 76.3173 308.916 77.5973 310.366 78.536C311.817 79.4747 313.502 79.944 315.422 79.944C316.83 79.944 318.11 79.7307 319.262 79.304C320.457 78.8347 321.481 78.1733 322.334 77.32C323.188 76.424 323.828 75.3573 324.254 74.12C324.724 72.84 324.958 71.4107 324.958 69.832C324.958 67.5707 324.958 65.608 324.958 63.944C324.958 62.28 324.958 60.7867 324.958 59.464C324.958 58.1413 324.958 56.904 324.958 55.752C324.958 54.5573 324.958 53.32 324.958 52.04C324.958 50.76 324.958 49.288 324.958 47.624C324.958 46.856 324.958 46.1093 324.958 45.384C324.958 44.616 324.958 43.848 324.958 43.08C324.958 42.2693 324.958 41.3947 324.958 40.456C324.958 39.3893 325.236 38.6 325.791 38.088C326.388 37.5333 327.071 37.256 327.839 37.256C328.606 37.256 329.268 37.5333 329.822 38.088C330.42 38.6 330.719 39.3893 330.719 40.456Z" fill="#EDDEA4"/>
<path d="M37.16 85C37.16 77.832 37.16 70.5787 37.16 63.24C37.16 55.9013 37.16 48.648 37.16 41.48C39.72 41.48 42.28 41.48 44.84 41.48C47.4427 41.48 50.024 41.48 52.584 41.48C55.8267 41.48 58.664 42.0987 61.096 43.336C63.528 44.5307 65.4053 46.2373 66.728 48.456C68.0933 50.632 68.776 53.192 68.776 56.136C68.776 58.6533 68.264 60.8933 67.24 62.856C66.216 64.8187 64.8293 66.4187 63.08 67.656C64.7867 70.5147 66.4933 73.416 68.2 76.36C69.9493 79.2613 71.6773 82.1413 73.384 85C71.2933 85 69.2027 85 67.112 85C65.0213 85 62.9307 85 60.84 85C59.5173 82.6107 58.1733 80.1787 56.808 77.704C55.4853 75.2293 54.1413 72.7973 52.776 70.408C52.0507 70.408 51.304 70.408 50.536 70.408C49.8107 70.408 49.0853 70.408 48.36 70.408C48.36 72.7973 48.36 75.2293 48.36 77.704C48.36 80.1787 48.36 82.6107 48.36 85C46.5253 85 44.6693 85 42.792 85C40.9147 85 39.0373 85 37.16 85ZM52.584 51.592C51.9013 51.592 51.1973 51.592 50.472 51.592C49.7893 51.592 49.0853 51.592 48.36 51.592C48.36 53.1707 48.36 54.7493 48.36 56.328C48.36 57.9067 48.36 59.4853 48.36 61.064C49.1707 61.064 49.9813 61.064 50.792 61.064C51.6027 61.064 52.4133 61.064 53.224 61.064C54.504 61.064 55.5493 60.616 56.36 59.72C57.1707 58.7813 57.576 57.6507 57.576 56.328C57.576 54.9627 57.128 53.832 56.232 52.936C55.3787 52.04 54.1627 51.592 52.584 51.592ZM100.925 83.464C97.981 84.7013 95.0583 85.4693 92.157 85.768C89.2557 86.0667 86.5037 85.896 83.901 85.256C81.341 84.6587 79.0583 83.6133 77.053 82.12C75.0477 80.6267 73.469 78.728 72.317 76.424C71.2077 74.12 70.653 71.4533 70.653 68.424C70.653 65.9067 71.0583 63.6027 71.869 61.512C72.7223 59.3787 73.917 57.5227 75.453 55.944C76.989 54.3227 78.8023 53.0853 80.893 52.232C82.9837 51.336 85.2663 50.888 87.741 50.888C89.9597 50.888 91.965 51.2507 93.757 51.976C95.549 52.7013 97.1063 53.7253 98.429 55.048C99.7517 56.328 100.818 57.864 101.629 59.656C102.44 61.448 102.952 63.4107 103.165 65.544C103.378 67.6773 103.25 69.9387 102.781 72.328C99.2823 72.328 95.7623 72.328 92.221 72.328C88.6797 72.328 85.1597 72.328 81.661 72.328C82.4717 73.9493 83.8157 75.1013 85.693 75.784C87.613 76.4667 89.8743 76.68 92.477 76.424C95.1223 76.168 97.9383 75.4853 100.925 74.376C100.925 75.8693 100.925 77.384 100.925 78.92C100.925 80.456 100.925 81.9707 100.925 83.464ZM87.485 60.36C86.2477 60.36 85.0957 60.7013 84.029 61.384C83.005 62.0667 82.2157 63.112 81.661 64.52C83.581 64.52 85.501 64.52 87.421 64.52C89.3837 64.52 91.325 64.52 93.245 64.52C92.733 63.0693 91.965 62.024 90.941 61.384C89.9597 60.7013 88.8077 60.36 87.485 60.36ZM105.877 85C105.877 77.2773 105.877 69.4907 105.877 61.64C105.877 53.7893 105.877 46.0027 105.877 38.28C107.627 38.28 109.397 38.28 111.189 38.28C112.981 38.28 114.731 38.28 116.437 38.28C116.437 40.7973 116.437 43.3573 116.437 45.96C116.437 48.52 116.437 51.0587 116.437 53.576C117.589 52.7653 118.869 52.1467 120.278 51.72C121.728 51.2507 123.285 51.016 124.949 51.016C127.381 51.016 129.515 51.5707 131.35 52.68C133.227 53.7893 134.678 55.3893 135.701 57.48C136.768 59.528 137.301 62.0027 137.301 64.904C137.301 68.232 137.301 71.5813 137.301 74.952C137.301 78.3227 137.301 81.672 137.301 85C135.595 85 133.846 85 132.053 85C130.261 85 128.491 85 126.741 85C126.741 81.928 126.741 78.8133 126.741 75.656C126.741 72.4987 126.741 69.384 126.741 66.312C126.741 64.6053 126.336 63.24 125.525 62.216C124.757 61.1493 123.52 60.616 121.813 60.616C120.107 60.616 118.784 61.1067 117.845 62.088C116.907 63.0693 116.437 64.4773 116.437 66.312C116.437 69.384 116.437 72.4987 116.437 75.656C116.437 78.8133 116.437 81.928 116.437 85C114.731 85 112.981 85 111.189 85C109.397 85 107.627 85 105.877 85ZM169.15 83.464C166.206 84.7013 163.283 85.4693 160.382 85.768C157.481 86.0667 154.729 85.896 152.126 85.256C149.566 84.6587 147.283 83.6133 145.278 82.12C143.273 80.6267 141.694 78.728 140.542 76.424C139.433 74.12 138.878 71.4533 138.878 68.424C138.878 65.9067 139.283 63.6027 140.094 61.512C140.947 59.3787 142.142 57.5227 143.678 55.944C145.214 54.3227 147.027 53.0853 149.118 52.232C151.209 51.336 153.491 50.888 155.966 50.888C158.185 50.888 160.19 51.2507 161.982 51.976C163.774 52.7013 165.331 53.7253 166.654 55.048C167.977 56.328 169.043 57.864 169.854 59.656C170.665 61.448 171.177 63.4107 171.39 65.544C171.603 67.6773 171.475 69.9387 171.006 72.328C167.507 72.328 163.987 72.328 160.446 72.328C156.905 72.328 153.385 72.328 149.886 72.328C150.697 73.9493 152.041 75.1013 153.918 75.784C155.838 76.4667 158.099 76.68 160.702 76.424C163.347 76.168 166.163 75.4853 169.15 74.376C169.15 75.8693 169.15 77.384 169.15 78.92C169.15 80.456 169.15 81.9707 169.15 83.464ZM155.71 60.36C154.473 60.36 153.321 60.7013 152.254 61.384C151.23 62.0667 150.441 63.112 149.886 64.52C151.806 64.52 153.726 64.52 155.646 64.52C157.609 64.52 159.55 64.52 161.47 64.52C160.958 63.0693 160.19 62.024 159.166 61.384C158.185 60.7013 157.033 60.36 155.71 60.36ZM195.862 85C195.862 84.6587 195.862 84.3387 195.862 84.04C195.862 83.6987 195.862 83.3787 195.862 83.08C194.796 83.976 193.58 84.6587 192.214 85.128C190.892 85.64 189.462 85.896 187.926 85.896C185.75 85.896 183.702 85.4907 181.782 84.68C179.862 83.8267 178.156 82.632 176.662 81.096C175.212 79.5173 174.06 77.6613 173.206 75.528C172.396 73.3947 171.99 71.0267 171.99 68.424C171.99 65.7787 172.396 63.3893 173.206 61.256C174.06 59.1227 175.212 57.3093 176.662 55.816C178.156 54.28 179.862 53.1067 181.782 52.296C183.702 51.4427 185.729 51.016 187.862 51.016C189.398 51.016 190.849 51.272 192.214 51.784C193.58 52.2533 194.796 52.9147 195.862 53.768C195.862 53.4267 195.862 53.1067 195.862 52.808C195.862 52.5093 195.862 52.2107 195.862 51.912C197.612 51.912 199.382 51.912 201.174 51.912C202.966 51.912 204.716 51.912 206.422 51.912C206.422 57.3733 206.422 62.8987 206.422 68.488C206.422 74.0347 206.422 79.5387 206.422 85C204.716 85 202.966 85 201.174 85C199.382 85 197.612 85 195.862 85ZM189.334 76.552C191.382 76.552 193.025 75.8053 194.262 74.312C195.5 72.8187 196.118 70.856 196.118 68.424C196.118 65.992 195.5 64.0507 194.262 62.6C193.025 61.1067 191.382 60.36 189.334 60.36C187.244 60.36 185.58 61.0853 184.342 62.536C183.148 63.9867 182.55 65.9493 182.55 68.424C182.55 70.8987 183.148 72.8827 184.342 74.376C185.58 75.8267 187.244 76.552 189.334 76.552ZM210.27 85C210.27 79.5387 210.27 74.0347 210.27 68.488C210.27 62.8987 210.27 57.3733 210.27 51.912C212.019 51.912 213.79 51.912 215.582 51.912C217.374 51.912 219.123 51.912 220.83 51.912C220.83 52.2107 220.83 52.5093 220.83 52.808C220.83 53.1067 220.83 53.4053 220.83 53.704C222.153 52.7653 223.646 52.0613 225.31 51.592C226.974 51.1227 228.787 50.9947 230.75 51.208C230.75 52.9147 230.75 54.6427 230.75 56.392C230.75 58.1413 230.75 59.8693 230.75 61.576C227.379 61.1067 224.883 61.4053 223.262 62.472C221.641 63.496 220.83 65.1813 220.83 67.528C220.83 70.3867 220.83 73.288 220.83 76.232C220.83 79.176 220.83 82.0987 220.83 85C219.123 85 217.374 85 215.582 85C213.79 85 212.019 85 210.27 85ZM257.6 74.76C257.6 77.4053 256.853 79.5813 255.36 81.288C253.909 82.952 251.947 84.168 249.472 84.936C246.997 85.704 244.224 86.024 241.152 85.896C238.123 85.8107 235.029 85.32 231.872 84.424C231.872 82.8027 231.872 81.1387 231.872 79.432C231.872 77.7253 231.872 76.0613 231.872 74.44C233.664 75.2507 235.456 75.8907 237.248 76.36C239.04 76.7867 240.661 77.0427 242.112 77.128C243.563 77.2133 244.736 77.1067 245.632 76.808C246.528 76.4667 246.976 75.912 246.976 75.144C246.976 74.5467 246.592 74.0773 245.824 73.736C245.099 73.3947 244.139 73.096 242.944 72.84C241.749 72.5413 240.469 72.2 239.104 71.816C237.781 71.3893 236.523 70.8133 235.328 70.088C234.133 69.32 233.152 68.3173 232.384 67.08C231.659 65.8 231.296 64.1573 231.296 62.152C231.296 59.7627 231.979 57.736 233.344 56.072C234.752 54.3653 236.629 53.0853 238.976 52.232C241.323 51.336 243.947 50.888 246.848 50.888C249.749 50.888 252.715 51.3787 255.744 52.36C255.744 53.9813 255.744 55.6453 255.744 57.352C255.744 59.0587 255.744 60.7227 255.744 62.344C253.355 61.192 251.115 60.424 249.024 60.04C246.933 59.656 245.248 59.6133 243.968 59.912C242.688 60.168 242.048 60.744 242.048 61.64C242.048 62.2373 242.411 62.7067 243.136 63.048C243.904 63.3467 244.864 63.624 246.016 63.88C247.211 64.136 248.469 64.4773 249.792 64.904C251.157 65.3307 252.416 65.928 253.568 66.696C254.763 67.4213 255.723 68.4453 256.448 69.768C257.216 71.048 257.6 72.712 257.6 74.76Z" fill="#15616D"/>
</svg>
