<svg width="28" height="28" viewBox="0 0 28 28" fill="none" xmlns="http://www.w3.org/2000/svg">
<path d="M16.4998 8.37484C17.9956 8.37484 19.2082 7.16228 19.2082 5.6665H20.4582C20.4582 7.16228 21.6708 8.37484 23.1665 8.37484V9.62484C21.6708 9.62484 20.4582 10.8374 20.4582 12.3332H19.2082C19.2082 10.8374 17.9956 9.62484 16.4998 9.62484V8.37484ZM7.33317 9.83317C7.33317 8.9127 8.07936 8.1665 8.99984 8.1665H14.8332V6.49984H8.99984C7.15889 6.49984 5.6665 7.99222 5.6665 9.83317V18.1665C5.6665 20.0074 7.15889 21.4998 8.99984 21.4998H18.9998C20.8408 21.4998 22.3332 20.0074 22.3332 18.1665V13.9998H20.6665V18.1665C20.6665 19.087 19.9203 19.8332 18.9998 19.8332H8.99984C8.07936 19.8332 7.33317 19.087 7.33317 18.1665V9.83317Z" fill="url(#paint0_radial_118_1140)"/>
<defs>
<radialGradient id="paint0_radial_118_1140" cx="0" cy="0" r="1" gradientTransform="matrix(8.53659 -15.8333 105.05 187.294 14.6299 21.4998)" gradientUnits="userSpaceOnUse">
<stop stop-color="#368CFB"/>
<stop offset="0.3" stop-color="#5CAEFE"/>
<stop offset="1" stop-color="#FFEB85"/>
</radialGradient>
</defs>
</svg>
